{
	"asset":{
		"generator":"Khronos glTF Blender I/O v4.2.57",
		"version":"2.0"
	},
	"scene":0,
	"scenes":[
		{
			"name":"Scene",
			"nodes":[
				0,
				1,
				2,
				3
			]
		}
	],
	"nodes":[
		{
			"mesh":0,
			"name":"watchtowerHigh"
		},
		{
			"mesh":1,
			"name":"Plane",
			"scale":[
				1.2112157344818115,
				1.2112157344818115,
				1.2112157344818115
			],
			"translation":[
				-1.4169143438339233,
				0,
				0
			]
		},
		{
			"name":"Spot",
			"rotation":[
				0.0863172635436058,
				0.057616591453552246,
				-0.1378422975540161,
				0.9850021004676819
			],
			"translation":[
				4.216198444366455,
				19.68030548095703,
				3.563807487487793
			]
		},
		{
			"mesh":2,
			"name":"Cube"
		}
	],
	"materials":[
		{
			"doubleSided":true,
			"name":"watchtower",
			"normalTexture":{
				"index":0
			},
			"pbrMetallicRoughness":{
				"baseColorTexture":{
					"index":1
				},
				"metallicFactor":0,
				"roughnessFactor":0.5476190447807312
			}
		},
		{
			"name":"Material.001",
			"pbrMetallicRoughness":{
				"baseColorFactor":[
					0.08186909556388855,
					0.08186909556388855,
					0.08186909556388855,
					1
				],
				"metallicFactor":0,
				"roughnessFactor":0.5
			}
		},
		{
			"doubleSided":true,
			"name":"Material",
			"pbrMetallicRoughness":{
				"baseColorFactor":[
					0.800000011920929,
					0.800000011920929,
					0.800000011920929,
					1
				],
				"metallicFactor":0,
				"roughnessFactor":0.5
			}
		}
	],
	"meshes":[
		{
			"name":"watchtower",
			"primitives":[
				{
					"attributes":{
						"POSITION":0,
						"NORMAL":1,
						"TEXCOORD_0":2,
						"TANGENT":3
					},
					"indices":4,
					"material":0
				}
			]
		},
		{
			"name":"Plane",
			"primitives":[
				{
					"attributes":{
						"POSITION":5,
						"NORMAL":6,
						"TEXCOORD_0":7,
						"TANGENT":8
					},
					"indices":9,
					"material":1
				}
			]
		},
		{
			"name":"Cube",
			"primitives":[
				{
					"attributes":{
						"POSITION":10,
						"NORMAL":11,
						"TEXCOORD_0":12,
						"TANGENT":13
					},
					"indices":14,
					"material":2
				}
			]
		}
	],
	"textures":[
		{
			"sampler":0,
			"source":0
		},
		{
			"sampler":0,
			"source":1
		}
	],
	"images":[
		{
			"mimeType":"image/png",
			"name":"Wood_Tower_Nor",
			"uri":"Wood_Tower_Nor.png"
		},
		{
			"mimeType":"image/png",
			"name":"t_C",
			"uri":"t_C.png"
		}
	],
	"accessors":[
		{
			"bufferView":0,
			"componentType":5126,
			"count":4168,
			"max":[
				2.110931634902954,
				7.648165702819824,
				2.110999822616577
			],
			"min":[
				-2.110931634902954,
				0,
				-2.1108622550964355
			],
			"type":"VEC3"
		},
		{
			"bufferView":1,
			"componentType":5126,
			"count":4168,
			"type":"VEC3"
		},
		{
			"bufferView":2,
			"componentType":5126,
			"count":4168,
			"type":"VEC2"
		},
		{
			"bufferView":3,
			"componentType":5126,
			"count":4168,
			"type":"VEC4"
		},
		{
			"bufferView":4,
			"componentType":5123,
			"count":6108,
			"type":"SCALAR"
		},
		{
			"bufferView":5,
			"componentType":5126,
			"count":4,
			"max":[
				10.04202651977539,
				0,
				10.04202651977539
			],
			"min":[
				-10.04202651977539,
				0,
				-10.04202651977539
			],
			"type":"VEC3"
		},
		{
			"bufferView":6,
			"componentType":5126,
			"count":4,
			"type":"VEC3"
		},
		{
			"bufferView":7,
			"componentType":5126,
			"count":4,
			"type":"VEC2"
		},
		{
			"bufferView":8,
			"componentType":5126,
			"count":4,
			"type":"VEC4"
		},
		{
			"bufferView":9,
			"componentType":5123,
			"count":6,
			"type":"SCALAR"
		},
		{
			"bufferView":10,
			"componentType":5126,
			"count":24,
			"max":[
				1,
				1,
				1
			],
			"min":[
				-1,
				-1,
				-1
			],
			"type":"VEC3"
		},
		{
			"bufferView":11,
			"componentType":5126,
			"count":24,
			"type":"VEC3"
		},
		{
			"bufferView":12,
			"componentType":5126,
			"count":24,
			"type":"VEC2"
		},
		{
			"bufferView":13,
			"componentType":5126,
			"count":24,
			"type":"VEC4"
		},
		{
			"bufferView":14,
			"componentType":5123,
			"count":36,
			"type":"SCALAR"
		}
	],
	"bufferViews":[
		{
			"buffer":0,
			"byteLength":50016,
			"byteOffset":0,
			"target":34962
		},
		{
			"buffer":0,
			"byteLength":50016,
			"byteOffset":50016,
			"target":34962
		},
		{
			"buffer":0,
			"byteLength":33344,
			"byteOffset":100032,
			"target":34962
		},
		{
			"buffer":0,
			"byteLength":66688,
			"byteOffset":133376,
			"target":34962
		},
		{
			"buffer":0,
			"byteLength":12216,
			"byteOffset":200064,
			"target":34963
		},
		{
			"buffer":0,
			"byteLength":48,
			"byteOffset":212280,
			"target":34962
		},
		{
			"buffer":0,
			"byteLength":48,
			"byteOffset":212328,
			"target":34962
		},
		{
			"buffer":0,
			"byteLength":32,
			"byteOffset":212376,
			"target":34962
		},
		{
			"buffer":0,
			"byteLength":64,
			"byteOffset":212408,
			"target":34962
		},
		{
			"buffer":0,
			"byteLength":12,
			"byteOffset":212472,
			"target":34963
		},
		{
			"buffer":0,
			"byteLength":288,
			"byteOffset":212484,
			"target":34962
		},
		{
			"buffer":0,
			"byteLength":288,
			"byteOffset":212772,
			"target":34962
		},
		{
			"buffer":0,
			"byteLength":192,
			"byteOffset":213060,
			"target":34962
		},
		{
			"buffer":0,
			"byteLength":384,
			"byteOffset":213252,
			"target":34962
		},
		{
			"buffer":0,
			"byteLength":72,
			"byteOffset":213636,
			"target":34963
		}
	],
	"samplers":[
		{
			"magFilter":9729,
			"minFilter":9987
		}
	],
	"buffers":[
		{
			"byteLength":213708,
			"uri":"tower.bin"
		}
	]
}
